<?xml version="1.0" standalone="no"?>
<!DOCTYPE svg PUBLIC "-//W3C//DTD SVG 20010904//EN"
 "http://www.w3.org/TR/2001/REC-SVG-20010904/DTD/svg10.dtd">
<svg version="1.0" xmlns="http://www.w3.org/2000/svg"
 width="1742.000000pt" height="1425.000000pt" viewBox="0 0 1742.000000 1425.000000"
 preserveAspectRatio="xMidYMid meet">
<metadata>
Created by potrace 1.16, written by Peter Selinger 2001-2019
</metadata>
<g transform="translate(0.000000,1425.000000) scale(0.100000,-0.100000)"
fill="#000000" stroke="none">
<path d="M7995 10594 c-258 -36 -334 -63 -626 -225 -236 -131 -331 -159 -552
-159 -141 -1 -251 -20 -317 -56 -61 -33 -134 -109 -126 -130 3 -9 6 -23 6 -32
0 -12 8 -8 33 14 104 98 133 106 432 114 294 8 319 14 499 118 208 121 293
162 412 201 183 60 286 75 514 75 287 0 417 -24 940 -179 157 -46 327 -95 379
-108 l93 -24 -83 -63 c-46 -35 -129 -109 -185 -164 -108 -108 -147 -173 -142
-231 l3 -33 69 76 c72 80 138 142 319 299 l106 93 78 -4 c140 -7 510 -128 683
-223 163 -90 319 -210 691 -534 135 -118 301 -262 370 -320 270 -231 449 -421
581 -618 115 -173 201 -359 213 -466 14 -125 48 -309 105 -565 85 -385 94
-454 95 -665 0 -281 -46 -469 -194 -799 -108 -241 -195 -389 -313 -532 -57
-69 -89 -98 -334 -302 -67 -56 -142 -127 -167 -159 -320 -406 -444 -549 -648
-748 -317 -309 -586 -481 -926 -595 -289 -96 -501 -126 -1003 -140 -195 -6
-474 -15 -620 -20 -328 -13 -455 -13 -640 1 -663 47 -1216 244 -1634 584 -115
94 -355 329 -384 375 -28 48 -143 157 -217 207 -33 22 -118 73 -190 113 -521
293 -733 524 -906 986 -99 266 -143 496 -143 749 0 219 9 274 110 675 41 162
84 346 94 408 18 101 18 117 5 148 -7 18 -19 34 -25 34 -14 0 -149 -278 -195
-404 -204 -554 -212 -1159 -24 -1694 132 -371 322 -631 607 -829 53 -37 162
-114 241 -171 176 -127 343 -237 437 -289 61 -33 85 -55 181 -168 161 -191
290 -306 498 -445 308 -206 630 -336 1030 -415 244 -49 351 -55 1055 -68 938
-16 1124 -15 1235 7 452 87 862 263 1150 495 151 121 276 257 595 650 127 157
166 199 168 182 4 -24 17 -27 29 -7 18 32 282 315 504 541 130 132 264 275
298 319 192 244 414 736 478 1061 14 72 18 140 18 345 0 288 -11 383 -91 795
-78 406 -103 539 -109 590 -10 74 -13 82 -43 94 -19 9 -42 40 -80 109 -112
206 -293 422 -533 636 -152 136 -656 545 -871 706 -151 114 -303 206 -430 261
-116 51 -362 125 -573 174 -88 20 -168 41 -177 46 -10 5 -30 9 -45 9 -34 1
-156 29 -278 64 -49 15 -209 51 -355 81 -146 29 -319 66 -385 80 -215 47 -369
66 -570 70 -104 2 -203 2 -220 -1z"/>
<path d="M8500 10322 c-40 -21 -95 -96 -110 -150 -5 -20 -10 -75 -9 -122 0
-84 1 -85 14 -47 8 20 44 93 80 162 43 81 65 134 63 150 l-3 25 -35 -18z"/>
<path d="M5962 9905 c-337 -64 -606 -190 -724 -338 -66 -85 -71 -102 -77 -308
-6 -185 -6 -186 -36 -235 -38 -60 -118 -126 -238 -194 -244 -138 -367 -242
-424 -357 -26 -54 -28 -66 -28 -178 0 -110 3 -129 34 -225 40 -123 52 -110 25
28 -16 80 -16 100 -5 155 28 137 119 242 326 378 72 47 175 115 230 151 123
81 209 168 225 228 8 30 9 86 5 180 -6 114 -5 146 9 186 35 104 146 213 292
284 75 36 282 110 308 110 6 0 -30 -20 -80 -44 -122 -58 -205 -115 -285 -196
-58 -58 -129 -162 -129 -186 0 -5 13 14 29 42 60 104 194 196 381 262 47 17
185 55 305 86 291 73 365 99 365 127 0 17 -183 7 -297 -16 -25 -5 -26 -4 -5 4
22 10 28 34 16 65 -9 22 -71 20 -222 -9z"/>
<path d="M8029 9805 c-3 -2 -56 -9 -118 -15 -140 -13 -319 -50 -471 -98 -118
-37 -198 -45 -547 -55 -57 -2 -76 -6 -95 -23 -13 -12 -37 -29 -54 -37 -60 -30
-114 -114 -114 -176 0 -7 -14 -38 -31 -68 -18 -30 -42 -85 -55 -122 l-24 -66
0 80 c0 164 -13 396 -21 383 -13 -19 -11 -651 1 -643 6 3 10 18 10 32 0 15 3
23 7 20 3 -4 5 -56 4 -117 l-2 -110 32 -19 c17 -11 47 -22 65 -26 20 -3 38
-15 46 -28 6 -12 51 -83 100 -157 206 -314 266 -510 202 -669 -17 -43 -34 -54
-34 -22 0 11 -4 22 -9 25 -14 9 -20 -18 -14 -61 4 -34 1 -45 -27 -76 -30 -34
-31 -39 -20 -72 13 -39 27 -43 73 -18 18 9 40 16 50 14 11 -1 17 4 17 16 0 11
18 36 39 57 49 48 88 134 97 212 7 66 40 244 47 251 6 5 27 -113 27 -148 0
-21 -38 -193 -57 -254 -14 -50 12 1 33 62 24 74 30 61 13 -33 -6 -33 -28 -92
-51 -134 -32 -59 -36 -71 -18 -55 l23 20 -8 -25 c-4 -14 -12 -28 -18 -32 -6
-3 -11 -18 -12 -32 -1 -24 0 -24 18 -8 16 14 41 17 141 18 67 1 133 5 146 9
23 7 23 7 17 -59 -4 -40 -2 -66 3 -66 6 0 10 28 10 63 l0 63 63 22 c34 12 51
20 37 17 -14 -3 -41 -8 -60 -11 l-35 -6 0 279 c-1 255 -2 285 -23 358 -23 86
-91 230 -107 230 -6 0 -13 -69 -17 -175 -5 -135 -12 -197 -30 -270 l-24 -95
-7 82 c-3 45 -2 108 3 140 8 48 40 397 40 436 0 7 -3 7 -9 2 -5 -6 -16 -91
-25 -190 -9 -99 -19 -195 -23 -214 -6 -34 -6 -34 -24 25 -17 54 -18 76 -9 243
5 101 10 185 12 186 2 2 50 -3 108 -11 58 -7 186 -14 286 -14 560 0 944 117
944 289 0 16 -3 32 -7 34 -5 3 -75 -20 -158 -50 -207 -74 -390 -129 -520 -155
-92 -19 -143 -23 -315 -23 -113 0 -235 4 -272 8 l-68 9 0 81 c0 57 -3 77 -10
67 -5 -8 -10 -43 -10 -77 0 -72 0 -72 -95 -49 l-50 11 -5 120 c-6 140 -20 130
-20 -15 l0 -99 -32 10 c-117 37 -118 38 -118 80 0 52 17 168 36 243 8 32 13
60 11 63 -8 7 -46 -150 -58 -242 -7 -49 -14 -91 -15 -93 -1 -2 -12 1 -23 7
-20 11 -21 21 -23 234 -2 166 -5 211 -12 177 -9 -43 -10 -44 -18 -18 -11 33
17 94 73 155 22 24 39 51 39 62 0 40 41 70 103 77 51 6 57 5 51 -10 -8 -20 -1
-20 61 1 37 12 108 18 265 23 239 8 280 15 525 88 155 46 164 47 285 46 114
-1 129 -3 175 -26 109 -56 187 -150 282 -336 56 -112 101 -171 114 -151 9 15
62 -57 95 -126 21 -45 24 -64 24 -182 l0 -133 40 -26 c22 -15 43 -36 45 -48 3
-12 18 -87 35 -167 29 -141 39 -178 74 -264 l17 -40 -21 25 c-28 35 -111 173
-149 248 -69 137 -122 359 -108 448 4 23 2 32 -5 28 -7 -5 -9 -44 -5 -118 7
-142 37 -248 122 -423 109 -225 174 -314 376 -511 207 -203 422 -382 427 -356
7 29 -67 162 -144 259 -41 53 -74 97 -74 98 0 2 -25 29 -55 60 -96 99 -215
295 -284 469 -16 40 -50 145 -76 233 -26 88 -57 186 -70 217 -13 32 -28 97
-34 145 -6 49 -18 115 -28 148 -9 33 -19 87 -22 120 -5 47 -8 56 -16 43 -9
-14 -16 -6 -45 50 -24 47 -62 95 -130 162 -139 140 -257 197 -508 246 -118 23
-183 29 -193 19z m519 -190 c161 -77 294 -261 276 -381 l-6 -44 -47 41 c-29
26 -56 63 -72 99 -39 84 -102 173 -179 251 -37 38 -62 69 -56 69 6 0 44 -16
84 -35z m-1528 -1045 c-1 -113 -3 -141 -12 -125 -6 11 -40 66 -75 122 -55 89
-63 107 -63 151 l0 50 75 -26 75 -27 0 -145z m115 116 l50 -12 -2 -39 c-1 -22
-5 -93 -9 -158 l-6 -119 -40 66 c-21 36 -44 66 -49 66 -6 0 -9 -3 -7 -7 2 -5
23 -46 46 -93 l42 -85 -12 -84 -12 -84 -26 84 c-15 46 -36 103 -48 126 -20 38
-22 57 -22 203 l0 161 23 -7 c12 -4 45 -12 72 -18z m254 -381 c45 -139 56
-227 56 -462 0 -116 -3 -214 -6 -218 -4 -3 -68 -9 -144 -12 l-137 -6 22 43
c37 72 117 331 134 431 8 52 18 149 22 217 4 75 10 118 15 110 5 -7 22 -53 38
-103z"/>
<path d="M10559 9701 c-167 -228 -228 -281 -434 -382 -134 -65 -272 -114 -608
-214 -169 -51 -231 -73 -238 -88 -6 -10 -9 -21 -7 -23 5 -4 305 49 433 77 497
110 791 290 866 530 30 95 23 148 -12 100z"/>
<path d="M7232 9293 c3 -37 5 -38 43 -41 22 -1 139 -12 260 -23 121 -12 292
-22 380 -22 137 -1 167 2 209 18 57 23 72 42 62 80 -7 26 -9 27 -49 21 -23 -3
-116 -11 -207 -17 -140 -10 -199 -10 -385 4 -121 10 -242 17 -268 17 l-48 0 3
-37z"/>
<path d="M5846 9294 c-4 -9 -5 -18 -4 -19 74 -54 373 -309 453 -386 l110 -107
2 -68 c4 -97 40 -241 57 -224 2 3 -4 41 -15 85 -22 93 -26 176 -7 157 32 -32
38 7 8 53 -11 17 -20 41 -20 55 0 18 -3 21 -11 13 -8 -8 -24 3 -58 42 -26 30
-81 84 -122 121 -72 64 -369 294 -381 294 -3 0 -9 -7 -12 -16z"/>
<path d="M6055 9057 c-4 -10 4 -57 19 -110 26 -92 77 -319 72 -324 -1 -1 -28
8 -61 21 l-58 24 -4 59 c-8 127 -52 297 -85 328 -13 12 -10 -2 26 -130 14 -49
29 -125 34 -168 l8 -79 -25 6 c-14 4 -52 12 -83 19 l-58 12 -16 53 c-8 30 -22
90 -31 133 -17 84 -36 99 -27 21 7 -51 29 -157 39 -183 5 -13 -8 -15 -92 -16
-142 -1 -273 -38 -273 -76 0 -15 5 -18 23 -13 120 33 309 31 442 -3 43 -12
158 -59 255 -106 190 -92 223 -102 228 -70 2 14 -9 27 -38 45 l-40 25 0 80 c0
96 -19 190 -53 268 -34 76 -51 74 -20 -3 30 -75 53 -192 53 -270 l0 -58 -54
29 -54 30 -12 72 c-27 167 -102 417 -115 384z"/>
<path d="M5180 8650 c-62 -25 -201 -103 -284 -159 -148 -99 -242 -222 -234
-308 3 -33 5 -35 10 -13 4 14 10 43 13 64 13 77 194 222 363 292 171 69 242
109 242 136 0 14 -63 8 -110 -12z"/>
<path d="M10408 8639 c-70 -4 -234 -22 -365 -39 -374 -49 -382 -50 -522 -59
-72 -5 -134 -11 -137 -14 -3 -3 -1 -22 6 -41 l12 -36 97 0 c110 0 261 17 524
60 286 46 420 60 582 60 179 0 262 -13 563 -85 276 -66 358 -78 495 -73 92 3
109 6 127 24 34 34 8 50 -97 58 -115 9 -236 27 -506 76 -375 68 -552 84 -779
69z"/>
<path d="M7520 8401 c0 -6 11 -56 25 -113 44 -180 85 -520 85 -706 0 -78 11
-119 23 -88 4 9 5 22 2 29 -2 6 -9 93 -15 192 -12 198 -36 425 -51 495 -22
101 -52 200 -60 200 -5 0 -9 -4 -9 -9z"/>
<path d="M7927 8127 c-8 -22 8 -239 28 -364 15 -93 54 -228 79 -273 13 -22 15
-23 21 -8 4 10 -6 61 -24 115 -41 131 -59 222 -72 367 -13 144 -22 190 -32
163z"/>
<path d="M5970 8073 c-19 -1 -84 -8 -145 -13 -255 -24 -595 -86 -802 -146
-277 -80 -428 -224 -441 -421 -5 -78 11 -104 21 -33 12 89 78 179 180 244 170
109 510 193 867 216 317 19 434 31 534 51 140 28 166 41 166 78 l0 31 -172 -2
c-95 0 -189 -3 -208 -5z"/>
<path d="M9925 7820 c-11 -35 14 -59 108 -104 155 -76 358 -116 585 -116 53 0
248 10 432 21 581 37 701 14 975 -191 182 -136 288 -193 329 -177 12 5 13 13
4 44 -64 236 -297 375 -691 414 -149 14 -364 7 -657 -22 -500 -49 -761 -21
-996 106 -77 41 -83 43 -89 25z"/>
<path d="M6130 7522 c0 -89 -23 -221 -45 -262 -8 -14 -14 -19 -15 -12 0 7 -4
10 -10 7 -5 -3 -10 -26 -10 -50 l0 -43 -109 -71 c-137 -89 -351 -193 -456
-222 -52 -14 -122 -23 -200 -26 l-120 -5 3 186 c2 124 -1 186 -8 186 -6 0 -10
-62 -10 -180 0 -167 -1 -180 -18 -180 -32 0 -125 31 -190 63 -53 25 -65 28
-73 16 -18 -29 80 -84 217 -120 103 -27 289 -29 424 -5 242 43 516 165 729
324 154 116 311 299 311 363 l0 30 -75 -51 c-80 -54 -85 -52 -60 20 8 24 13
45 11 48 -3 2 -14 -28 -26 -66 -21 -68 -24 -73 -91 -121 -38 -28 -72 -51 -74
-51 -3 0 -5 63 -5 141 0 91 -4 138 -10 134 -6 -4 -10 -66 -10 -153 l-1 -147
-46 -32 c-26 -18 -48 -31 -49 -30 -1 1 4 38 12 82 21 119 29 268 16 291 -9 15
-11 2 -12 -64z"/>
<path d="M9034 7366 c-5 -23 6 -44 79 -139 139 -183 265 -324 597 -667 341
-352 369 -383 454 -508 117 -173 155 -268 196 -502 29 -161 51 -245 84 -308
18 -35 75 -82 99 -82 39 0 61 284 33 435 -44 234 -178 457 -416 695 -107 106
-170 162 -500 440 -310 261 -447 402 -561 574 -54 82 -59 86 -65 62z"/>
<path d="M7551 7286 l-13 -39 -127 7 c-113 7 -176 15 -236 32 -13 4 -17 3 -10
-4 19 -19 142 -42 254 -49 83 -4 111 -9 107 -19 -2 -6 -20 -75 -39 -151 -37
-145 -71 -348 -83 -493 -4 -47 -15 -109 -25 -139 -22 -63 -23 -79 -4 -36 13
27 14 13 15 -133 l0 -164 -50 -101 c-27 -56 -52 -115 -55 -132 -3 -16 7 2 23
40 16 39 40 93 54 120 l26 50 5 -45 c11 -88 32 -345 30 -370 -1 -28 -36 -107
-83 -190 -17 -30 -22 -44 -11 -30 11 14 37 60 58 102 21 43 40 78 43 78 3 0
13 -46 21 -102 12 -76 13 -107 5 -117 -8 -11 -8 -13 1 -8 15 9 28 -35 19 -60
-4 -10 -4 -14 0 -10 4 4 23 -57 41 -135 18 -79 37 -152 41 -163 28 -63 21 250
-13 623 -41 443 -34 955 21 1529 l5 62 62 4 62 3 -62 2 -62 2 -3 38 -3 37 -14
-39z"/>
<path d="M8334 7069 c13 -184 61 -412 120 -574 14 -38 24 -70 23 -72 -2 -1
-41 67 -87 152 -63 113 -88 151 -97 143 -16 -13 -41 -94 -44 -138 -5 -81 5
-98 11 -20 4 47 14 101 22 120 l15 35 16 -32 c14 -27 17 -65 17 -240 0 -134 3
-204 10 -197 5 5 11 88 12 183 l3 174 99 -184 c55 -101 136 -256 181 -344 88
-171 146 -272 260 -455 40 -63 121 -200 180 -305 119 -211 113 -201 121 -193
3 4 -2 21 -11 38 -32 63 3 19 85 -106 79 -118 85 -125 93 -101 7 23 -16 68
-171 339 -385 672 -559 1020 -700 1398 -53 142 -142 421 -142 445 0 7 -5 17
-12 21 -8 5 -9 -17 -4 -87z"/>
<path d="M10130 7127 c0 -31 7 -41 68 -89 315 -253 676 -414 1102 -489 101
-18 478 -18 586 -1 107 18 117 25 81 57 -43 39 -69 40 -162 10 -80 -26 -91
-27 -232 -23 -166 6 -278 27 -538 105 -213 63 -279 88 -423 158 -179 87 -301
164 -469 298 -10 7 -13 1 -13 -26z"/>
<path d="M6645 6788 c-59 -112 -111 -207 -116 -212 -5 -6 -9 32 -9 92 0 56 -4
102 -9 102 -17 0 -21 -31 -21 -146 0 -98 -3 -121 -22 -157 -21 -41 -22 -41
-29 -17 -6 22 -7 20 -8 -13 -2 -64 -199 -360 -383 -574 -44 -51 -82 -93 -84
-93 -2 0 -4 10 -4 21 0 14 35 57 95 118 l95 97 0 75 0 75 50 49 50 49 0 -54
c1 -46 2 -52 12 -35 6 10 10 42 9 69 -2 48 -1 51 61 115 l63 65 -60 -54 -60
-53 -5 159 c-6 197 -20 177 -20 -30 l0 -152 -48 -48 -49 -47 -7 77 c-8 98 -35
199 -49 185 -7 -7 -5 -32 6 -78 9 -38 19 -100 23 -139 l7 -70 -74 -67 c-40
-37 -74 -65 -75 -64 -2 1 -8 34 -14 72 -15 94 -29 147 -39 141 -4 -3 0 -47 10
-98 25 -129 25 -142 -12 -172 -17 -14 -35 -24 -39 -21 -5 3 -12 0 -16 -6 -5
-8 -3 -9 7 -4 11 7 11 5 -1 -10 -14 -17 -15 -15 -20 31 -6 58 -18 47 -21 -20
-3 -44 -7 -51 -56 -93 -29 -25 -55 -44 -56 -42 -2 2 -9 24 -16 48 -11 37 -15
42 -22 28 -7 -11 -6 -31 2 -57 7 -22 10 -42 8 -44 -40 -33 -129 -84 -130 -74
0 7 -4 4 -8 -7 -10 -23 -162 -108 -185 -103 -8 2 -21 -4 -28 -13 -12 -15 -115
-59 -138 -59 -13 0 -13 81 0 114 8 22 7 26 -8 25 -9 0 -26 -5 -37 -10 -17 -8
-17 -9 6 -4 l25 4 -11 -71 -11 -72 -44 -12 c-25 -7 -38 -12 -30 -13 8 -1 29 3
47 8 27 8 32 6 37 -12 8 -32 8 -35 -11 -40 -17 -4 -17 -5 -1 -6 10 -1 20 -12
24 -28 4 -16 13 -38 21 -51 18 -30 7 -34 -92 -30 l-78 3 -19 55 c-10 30 -23
89 -27 130 l-8 75 -2 -95 c0 -52 3 -110 8 -128 9 -29 8 -32 -13 -32 -12 0 -46
12 -75 26 -70 35 -101 83 -108 166 -8 81 -21 51 -22 -50 -1 -47 4 -83 14 -102
32 -63 147 -123 268 -141 150 -22 369 28 559 128 184 97 429 310 591 513 207
259 389 602 495 931 42 131 55 179 48 179 -2 0 -52 -91 -111 -202z m-587 -865
c-40 -40 -75 -73 -78 -73 -3 0 -3 33 -2 72 l4 73 71 66 72 66 3 -65 3 -66 -73
-73z m-338 -241 c0 -34 -5 -40 -55 -72 -30 -19 -57 -41 -60 -48 -6 -16 3 -11
68 35 l47 35 0 -41 c0 -37 -4 -44 -47 -76 -43 -32 -238 -135 -255 -135 -5 0
-21 87 -23 122 0 4 37 29 83 56 l82 50 0 -71 c0 -50 3 -67 10 -57 5 8 10 44
10 80 l0 65 63 51 c34 28 65 49 70 47 4 -2 7 -21 7 -41z m-344 -247 l10 -65
-36 -10 c-19 -5 -52 -12 -74 -16 -35 -6 -38 -5 -32 13 4 11 0 36 -9 55 l-14
36 52 17 c29 9 59 21 67 26 24 14 25 12 36 -56z"/>
<path d="M4423 6660 c3 -124 13 -277 22 -340 36 -266 123 -531 233 -704 24
-38 26 -39 35 -19 7 17 -1 37 -42 106 -101 167 -171 376 -205 613 -9 61 -21
212 -27 335 -6 123 -13 226 -16 229 -3 3 -3 -96 0 -220z"/>
<path d="M7930 6842 c0 -16 13 -64 29 -108 61 -167 96 -374 136 -794 26 -276
37 -363 60 -493 48 -257 128 -462 239 -606 114 -148 299 -284 460 -337 l81
-27 -32 -14 c-18 -7 -33 -19 -33 -27 0 -11 10 -12 48 -5 26 5 56 12 67 16 11
4 97 7 190 8 200 2 289 20 425 88 105 52 211 152 253 240 32 67 57 170 57 240
0 53 -18 137 -30 137 -4 0 -36 -52 -71 -116 -102 -184 -192 -315 -259 -377
-69 -64 -172 -121 -258 -141 -73 -18 -182 -29 -182 -19 0 4 19 21 41 38 49 36
111 115 138 175 30 65 26 83 -5 22 -14 -28 -49 -73 -78 -99 -63 -57 -172 -123
-203 -123 -64 0 -237 86 -338 167 -234 190 -363 486 -450 1033 -50 312 -90
520 -131 679 -36 137 -141 471 -150 471 -2 0 -4 -13 -4 -28z"/>
<path d="M12284 6155 c-148 -147 -216 -234 -432 -555 -252 -375 -369 -507
-635 -712 -271 -209 -371 -292 -463 -385 -103 -104 -131 -159 -37 -73 72 66
204 165 403 305 382 267 507 390 840 835 68 91 169 221 225 290 187 232 238
315 233 382 l-3 43 -131 -130z"/>
<path d="M5494 4827 c219 -136 333 -234 599 -516 340 -361 487 -478 667 -528
53 -14 63 -15 71 -2 18 28 7 39 -92 90 -181 93 -306 191 -581 457 -213 206
-303 286 -412 366 -91 68 -228 146 -252 145 -19 0 -19 0 0 -12z"/>
<path d="M10275 3954 c-112 -83 -384 -195 -595 -243 -359 -83 -730 -87 -1492
-16 -432 40 -700 58 -778 53 -54 -3 -55 -4 -55 -33 l0 -30 185 -12 c102 -7
349 -30 550 -52 576 -63 608 -65 925 -66 319 0 402 7 604 52 147 32 261 72
385 136 99 50 230 141 275 191 28 30 26 41 -4 20z"/>
</g>
</svg>
